<svg width="36" height="36" viewBox="0 0 36 36" fill="none" xmlns="http://www.w3.org/2000/svg">
<path d="M4.248 5.112H16.488V7.416H4.284V31.788H28.656V19.62H30.96V31.86C30.96 32.148 30.888 32.472 30.78 32.724C30.672 33.012 30.492 33.264 30.276 33.444C30.06 33.66 29.808 33.804 29.556 33.948C29.304 34.056 28.98 34.128 28.692 34.128H4.212C3.924 34.128 3.6 34.056 3.348 33.948C3.06 33.84 2.808 33.66 2.628 33.444C2.412 33.228 2.268 32.976 2.124 32.724C2.016 32.472 1.944 32.148 1.944 31.86V7.38C1.944 7.092 2.016 6.768 2.124 6.516C2.232 6.228 2.412 5.976 2.628 5.796C2.844 5.58 3.096 5.436 3.348 5.292C3.636 5.184 3.96 5.112 4.248 5.112Z" fill="#544BC9"/>
<path fill-rule="evenodd" clip-rule="evenodd" d="M24.444 6.516L13.5 17.46L11.412 23.58C11.196 24.372 11.808 24.984 12.564 24.732L18.684 22.644C24.12 17.208 24.192 17.136 29.628 11.7C27.864 9.936 26.172 8.208 24.444 6.516ZM30.132 11.124L33.84 7.416C34.092 7.164 34.2 6.876 34.2 6.552C34.2 6.228 34.092 5.94 33.84 5.688L30.384 2.232C30.132 1.98 29.844 1.872 29.52 1.872C29.196 1.872 28.908 1.98 28.656 2.232C27.432 3.456 26.208 4.716 24.948 5.94C26.712 7.668 28.44 9.396 30.132 11.124Z" fill="#544BC9"/>
</svg>
