<svg width="45" height="44" viewBox="0 0 45 44" fill="none" xmlns="http://www.w3.org/2000/svg">
<path fill-rule="evenodd" clip-rule="evenodd" d="M11.6451 10.648C12.3742 10.648 12.9651 11.239 12.9651 11.968V37.62C12.9651 38.1797 13.4425 38.676 14.0651 38.676H30.4331C31.0083 38.676 31.4891 38.1829 31.4891 37.62V11.968C31.4891 11.239 32.0801 10.648 32.8091 10.648C33.5382 10.648 34.1291 11.239 34.1291 11.968V37.62C34.1291 39.6091 32.498 41.316 30.4331 41.316H14.0651C12.0478 41.316 10.3251 39.7003 10.3251 37.62V11.968C10.3251 11.239 10.9161 10.648 11.6451 10.648Z" fill="#544BC9"/>
<path fill-rule="evenodd" clip-rule="evenodd" d="M15.2971 32.604C16.0261 32.604 16.6171 33.195 16.6171 33.924V36.652C16.6171 37.381 16.0261 37.972 15.2971 37.972C14.5681 37.972 13.9771 37.381 13.9771 36.652V33.924C13.9771 33.195 14.5681 32.604 15.2971 32.604Z" fill="#544BC9"/>
<path fill-rule="evenodd" clip-rule="evenodd" d="M15.2971 25.96C16.0261 25.96 16.6171 26.551 16.6171 27.28V30.624C16.6171 31.353 16.0261 31.944 15.2971 31.944C14.5681 31.944 13.9771 31.353 13.9771 30.624V27.28C13.9771 26.551 14.5681 25.96 15.2971 25.96Z" fill="#544BC9"/>
<path fill-rule="evenodd" clip-rule="evenodd" d="M27.7491 9.988C28.4782 9.988 29.0691 10.579 29.0691 11.308V40.04C29.0691 40.769 28.4782 41.36 27.7491 41.36H23.8331C23.1041 41.36 22.5131 40.769 22.5131 40.04V11.44C22.5131 10.711 23.1041 10.12 23.8331 10.12C24.5622 10.12 25.1531 10.711 25.1531 11.44V38.72H26.4291V11.308C26.4291 10.579 27.0201 9.988 27.7491 9.988Z" fill="#544BC9"/>
<path fill-rule="evenodd" clip-rule="evenodd" d="M7.11314 12.056C7.11314 10.667 8.23212 9.548 9.62114 9.548H34.7891C36.1782 9.548 37.2971 10.667 37.2971 12.056V14.564C37.2971 15.953 36.1782 17.072 34.7891 17.072H33.4251C32.6961 17.072 32.1051 16.481 32.1051 15.752C32.1051 15.023 32.6961 14.432 33.4251 14.432H34.6571V12.188H9.75314V14.432H10.9851C11.7142 14.432 12.3051 15.023 12.3051 15.752C12.3051 16.481 11.7142 17.072 10.9851 17.072H9.62114C8.23212 17.072 7.11314 15.953 7.11314 14.564V12.056Z" fill="#544BC9"/>
<path fill-rule="evenodd" clip-rule="evenodd" d="M5.07101 5.34988C5.01889 5.40201 5.00113 5.4583 5.00113 5.5V20.416C5.00113 20.4577 5.01889 20.514 5.07101 20.5661C5.12314 20.6182 5.17944 20.636 5.22113 20.636H10.9851C11.7141 20.636 12.3051 21.227 12.3051 21.956C12.3051 22.685 11.7141 23.276 10.9851 23.276H5.22113C3.65612 23.276 2.36113 21.981 2.36113 20.416V5.5C2.36113 3.93498 3.65612 2.64 5.22113 2.64H39.2331C40.7981 2.64 42.0931 3.93498 42.0931 5.5V20.416C42.0931 21.981 40.7981 23.276 39.2331 23.276H33.4251C32.6961 23.276 32.1051 22.685 32.1051 21.956C32.1051 21.227 32.6961 20.636 33.4251 20.636H39.2331C39.2748 20.636 39.3311 20.6182 39.3833 20.5661C39.4354 20.514 39.4531 20.4577 39.4531 20.416V5.5C39.4531 5.4583 39.4354 5.40201 39.3833 5.34988C39.3311 5.29775 39.2748 5.28 39.2331 5.28H5.22113C5.17944 5.28 5.12314 5.29775 5.07101 5.34988Z" fill="#544BC9"/>
</svg>
