<svg width="44" height="44" viewBox="0 0 44 44" fill="none" xmlns="http://www.w3.org/2000/svg">
<path fill-rule="evenodd" clip-rule="evenodd" d="M24.5701 4.63122C25.2443 4.90852 25.5661 5.67988 25.2888 6.3541L23.0448 11.8101C22.7675 12.4843 21.9961 12.8061 21.3219 12.5288C20.6477 12.2515 20.3259 11.4801 20.6032 10.8059L22.8472 5.34991C23.1245 4.67569 23.8959 4.35392 24.5701 4.63122Z" fill="#544BC9"/>
<path fill-rule="evenodd" clip-rule="evenodd" d="M19.036 6.96605C19.7572 6.85998 20.4279 7.35869 20.534 8.07995L20.974 11.0719C21.08 11.7932 20.5813 12.4639 19.8601 12.57C19.1388 12.676 18.4681 12.1773 18.3621 11.4561L17.9221 8.46405C17.816 7.74279 18.3147 7.07211 19.036 6.96605Z" fill="#544BC9"/>
<path fill-rule="evenodd" clip-rule="evenodd" d="M21.428 17.82C22.157 17.82 22.748 18.411 22.748 19.14V21.604C22.748 22.333 22.157 22.924 21.428 22.924C20.699 22.924 20.108 22.333 20.108 21.604V19.14C20.108 18.411 20.699 17.82 21.428 17.82Z" fill="#544BC9"/>
<path fill-rule="evenodd" clip-rule="evenodd" d="M21.428 31.064C22.157 31.064 22.748 31.655 22.748 32.384V34.848C22.748 35.577 22.157 36.168 21.428 36.168C20.699 36.168 20.108 35.577 20.108 34.848V32.384C20.108 31.655 20.699 31.064 21.428 31.064Z" fill="#544BC9"/>
<path fill-rule="evenodd" clip-rule="evenodd" d="M21.9519 20.7301C23.1621 20.8339 24.2994 21.2279 25.3754 21.6006C25.4062 21.6113 25.437 21.622 25.4678 21.6326C26.1567 21.8711 26.5219 22.6229 26.2834 23.3118C26.0449 24.0007 25.2931 24.3659 24.6042 24.1274C23.4248 23.7191 22.5746 23.4311 21.7144 23.3594C21.7023 23.3584 21.6903 23.3573 21.6782 23.3559C19.223 23.0831 18.6944 24.1963 18.6714 24.4254C18.6574 24.5648 18.6963 24.8108 19.0527 25.0785C19.4302 25.362 20.1795 25.6616 21.4622 25.652L21.472 25.652C23.1033 25.652 24.453 26.0496 25.4141 26.7882C26.3898 27.538 26.9327 28.6312 26.8354 29.7936C26.6326 32.217 24.0552 33.5787 20.964 33.2107L20.9493 33.2089C19.8776 33.0691 18.7811 32.7168 17.786 32.397C17.7065 32.3715 17.6278 32.3462 17.5497 32.3212C16.8554 32.099 16.4726 31.356 16.6948 30.6617C16.917 29.9674 17.66 29.5846 18.3543 29.8068C18.411 29.8249 18.4672 29.8429 18.5228 29.8608C19.5866 30.2016 20.4617 30.482 21.2834 30.5901C22.4549 30.7283 23.2204 30.5204 23.6537 30.2679C24.0828 30.0179 24.1911 29.7354 24.2046 29.5734C24.2173 29.4213 24.1662 29.1587 23.8054 28.8814C23.4305 28.5933 22.7025 28.2927 21.4765 28.292C19.8136 28.3036 18.4417 27.9212 17.4673 27.1894C16.4707 26.4409 15.9266 25.3367 16.0446 24.1616C16.2851 21.7663 18.8709 20.3942 21.9519 20.7301Z" fill="#544BC9"/>
<path fill-rule="evenodd" clip-rule="evenodd" d="M29.3948 3.47666C29.6073 4.26677 29.4766 5.13347 29.195 5.99723L29.1923 6.00542C28.8154 7.13596 28.0341 8.31479 27.3644 9.26754C27.1612 9.55666 26.9703 9.82288 26.7945 10.068C26.3281 10.7183 25.9683 11.22 25.7684 11.6064C25.6401 11.8546 25.4362 12.0557 25.1863 12.1806L25.0983 12.2246C24.4463 12.5507 23.6534 12.2864 23.3274 11.6343C23.0633 11.1063 23.1864 10.4858 23.5891 10.0958C23.8958 9.5758 24.3375 8.96092 24.7617 8.3703C24.9139 8.1584 25.0639 7.94962 25.2046 7.74946C25.8867 6.77901 26.4465 5.89133 26.6864 5.17455C26.8953 4.53228 26.8661 4.24406 26.8462 4.16549C26.8353 4.15868 26.8172 4.14877 26.7897 4.13695C26.6257 4.06657 26.2972 3.99994 25.7247 4.00523C25.1718 4.01034 24.5014 4.07988 23.7191 4.19374C23.0373 4.29298 22.307 4.42018 21.5281 4.55584C21.4156 4.57542 21.3022 4.59518 21.1877 4.61506C20.2898 4.77099 19.3396 4.93232 18.387 5.05882C17.4112 5.18843 16.3989 5.2868 15.4024 5.30038C15.411 5.31289 15.4196 5.32546 15.4282 5.33808C16.388 6.74205 17.6818 8.70193 18.466 10.5792C18.747 11.2519 18.4295 12.025 17.7568 12.306C17.0841 12.587 16.311 12.2695 16.03 11.5968C15.3622 9.99808 14.214 8.23996 13.2488 6.82793C13.1196 6.63896 12.9916 6.45325 12.8683 6.27427C12.5514 5.81427 12.2651 5.39878 12.0677 5.08711C11.9453 4.89388 11.7812 4.62568 11.6883 4.37356C11.6616 4.30112 11.6244 4.1872 11.6034 4.04845C11.5852 3.92869 11.5577 3.65887 11.6722 3.3488C11.814 2.96489 12.1239 2.6581 12.5278 2.5275C12.8477 2.42406 13.1216 2.46503 13.249 2.49169C14.5739 2.76355 16.2254 2.68274 18.0395 2.4418C18.9349 2.32287 19.8396 2.16966 20.736 2.01399C20.8482 1.9945 20.9605 1.97494 21.0727 1.95539C21.8472 1.82046 22.6176 1.68624 23.3389 1.58126C24.1626 1.46137 24.9703 1.37209 25.7003 1.36535C26.4106 1.35878 27.1698 1.42724 27.8308 1.71093C28.5565 2.02238 29.1583 2.59723 29.3948 3.47666ZM26.8605 4.17551C26.8605 4.17552 26.8602 4.17524 26.8595 4.17467C26.8602 4.17521 26.8605 4.1755 26.8605 4.17551ZM12.7034 5.0747C12.7066 5.07539 12.7101 5.07612 12.7138 5.07688C12.7139 5.0769 12.714 5.07692 12.7141 5.07694M12.7034 5.0747L12.7138 5.07688L12.7034 5.0747Z" fill="#544BC9"/>
<path fill-rule="evenodd" clip-rule="evenodd" d="M13.5814 14.5323C12.145 15.5904 10.648 17.0704 9.28713 18.7077L9.28393 18.7116C7.28335 21.1 5.20428 25.3554 4.54289 29.4852C3.8755 33.6525 4.70066 37.1442 7.73019 38.845L7.73114 38.8455C8.8609 39.481 10.4401 39.791 12.7561 39.9097C14.3801 39.993 16.2449 39.9802 18.4403 39.9652C19.3741 39.9588 20.3677 39.952 21.428 39.952C22.4821 39.952 23.4736 39.9597 24.4089 39.9669C26.4316 39.9825 28.1918 39.9961 29.7563 39.9258C32.0441 39.8231 33.6809 39.5437 34.8737 38.9473C36.617 38.0757 37.6182 36.7895 38.1276 35.2594C38.6505 33.689 38.673 31.7974 38.3016 29.7671C37.5551 25.6875 35.2909 21.4426 33.2286 19.0296L33.2272 19.028C31.7557 17.3006 30.1463 15.7392 28.6226 14.6221C27.0477 13.4676 25.7639 12.936 24.904 12.936H17.16C16.2933 12.936 15.0609 13.4424 13.5814 14.5323ZM12.0156 12.4067C13.6271 11.2196 15.4307 10.296 17.16 10.296H24.904C26.6401 10.296 28.5023 11.2604 30.1834 12.4929C31.9155 13.7627 33.672 15.4791 35.2364 17.3155C37.5738 20.0507 40.061 24.7151 40.8984 29.2919C41.319 31.5901 41.3415 33.9637 40.6324 36.0934C39.9098 38.2635 38.447 40.1123 36.0543 41.3086C34.3431 42.1643 32.2399 42.4569 29.8747 42.5632C28.2389 42.6366 26.3667 42.6223 24.3016 42.6064C23.3808 42.5994 22.4216 42.592 21.428 42.592C20.4264 42.592 19.4656 42.5986 18.5474 42.6048C16.3099 42.6201 14.3256 42.6337 12.6209 42.5463C10.2184 42.4231 8.12389 42.0951 6.43781 41.147C1.94333 38.6238 1.20649 33.6235 1.93611 29.0678C2.67154 24.4756 4.94761 19.7781 7.25848 17.0183C8.71321 15.2683 10.3616 13.6251 12.0156 12.4067Z" fill="#544BC9"/>
</svg>
